<svg width="156" height="210" viewBox="0 0 156 210" fill="none" xmlns="http://www.w3.org/2000/svg">
<path d="M95.9865 85C95.9865 85 95.9865 71 95.9865 60M95.9865 60C95.9865 48 95.9865 32 95.9865 20C95.9865 12 102.987 5 110.988 5C118.989 5 125.99 12 125.99 20V105L145.992 132C151.993 140 150.993 150 144.992 158L106.988 199C102.987 203 97.9868 205 91.9861 205C80.9848 205 62.9827 205 45.9808 205C21.978 205 9.97666 179 5.9762 166V165C5.9762 158 5.9762 96 5.9762 80C5.9762 57 35.9796 57 35.9796 80C35.9796 84 35.9796 86 35.9796 86C35.9796 86 35.9796 71 35.9796 69C35.9796 46 65.9831 46 65.9831 69C65.9831 78 65.9831 86 65.9831 86V60C65.9831 37 95.9865 37 95.9865 60Z" stroke="#288E3E" stroke-width="10" stroke-linecap="round" stroke-linejoin="round"/>
</svg>
